<svg
    version="1.1"
    xmlns="http://www.w3.org/2000/svg"
    width="420"
    height="300">

    <style>
        .pink { fill: #D5314C; }
        .purple { fill: #9E2EC7; }
    </style>

    <defs>
        <linearGradient id="gradient" x1="30%" y1="0%" x2="90%" y2="70%" gradientUnits="userSpaceOnUse">
            <stop  offset="0" style="stop-color:#D5314C"/>
            <stop  offset="1" style="stop-color:#9E2EC7"/>
        </linearGradient>
    </defs>

    <g fill="url(#gradient)">
        <g>
            <circle cx="64.476" cy="64.665" r="3.917"/>
            <circle cx="62.503" cy="52.202" r="3.917"/>
            <circle cx="66.185" cy="77.215" r="3.917"/>
            <circle cx="67.428" cy="89.801" r="3.917"/>
            <circle cx="68.595" cy="102.45" r="3.917"/>
            <circle cx="69.485" cy="115.136" r="3.917"/>
            <circle cx="70.095" cy="127.844" r="3.917"/>
            <circle cx="70.442" cy="140.576" r="3.917"/>
            <circle cx="70.511" cy="152.214" r="3.917"/>
            <circle cx="70.431" cy="166.051" r="3.917"/>
            <circle cx="70.095" cy="178.784" r="3.917"/>
            <circle cx="69.486" cy="190.714" r="3.917"/>
            <circle cx="68.595" cy="203.089" r="3.917"/>
            <circle cx="67.432" cy="215.589" r="3.917"/>
            <circle cx="66.179" cy="227.714" r="3.917"/>
            <circle cx="64.479" cy="239.839" r="3.917"/>
            <circle cx="62.504" cy="252.964" r="3.917"/>
        </g>

        <g>
            <path d="M268.395,18.873L74.471,46.123c-2.127,0.302-3.631,2.286-3.329,4.425c0.294,2.135,2.286,3.638,4.425,3.333l193.913-27.256
                c2.135-0.296,3.632-2.288,3.336-4.419c-0.271-1.949-1.956-3.373-3.883-3.373C268.76,18.832,268.577,18.844,268.395,18.873"/>

            <path d="M299.416,14.511l-15.503,2.178c-2.135,0.298-3.63,2.29-3.34,4.425c0.299,2.129,2.29,3.631,4.425,3.328l15.512-2.177
                c2.135-0.299,3.635-2.29,3.332-4.425c-0.268-1.947-1.957-3.369-3.871-3.369C299.789,14.471,299.606,14.482,299.416,14.511"/>

            <path d="M317.574,29.271l-85.521,10.503c-0.853,0.104-2.043,0.608-2.628,1.112c-0.592,0.508-1.77,1.011-2.626,1.11L100.075,57.559
                c-0.864,0.106-2.127-0.093-2.817-0.445c-0.698-0.345-1.964-0.547-2.821-0.436l-17.878,2.189c-2.146,0.267-3.681,2.23-3.41,4.365
                c0.256,2.143,2.232,3.675,4.363,3.417l17.886-2.203c0.86-0.107,2.039-0.603,2.619-1.111c0.593-0.505,1.775-1.005,2.627-1.111
                l126.734-15.558c0.85-0.103,2.113,0.091,2.811,0.44s1.968,0.548,2.82,0.439l85.522-10.497c2.134-0.264,3.673-2.222,3.412-4.365
                c-0.251-1.979-1.947-3.44-3.897-3.44C317.889,29.244,317.729,29.251,317.574,29.271"/>

            <path d="M296.483,48.757l-31.165,3.274c-0.854,0.091-2.046,0.572-2.643,1.064c-0.589,0.492-1.787,0.975-2.644,1.062l-158.14,16.627
                c-0.86,0.086-2.12-0.132-2.805-0.493c-0.69-0.362-1.953-0.583-2.813-0.492l-17.917,1.879c-2.139,0.223-3.712,2.168-3.487,4.305
                c0.232,2.143,2.162,3.71,4.309,3.489l17.917-1.885c0.856-0.087,2.05-0.571,2.643-1.067c0.597-0.496,1.798-0.973,2.643-1.068
                l158.141-16.621c0.856-0.091,2.123,0.14,2.81,0.496c0.685,0.36,1.956,0.583,2.809,0.497l31.162-3.278
                c2.146-0.225,3.711-2.163,3.49-4.305c-0.221-2.003-1.926-3.507-3.897-3.507C296.755,48.734,296.623,48.742,296.483,48.757"/>

            <path d="M360.628,59.963l-23.404,2.046c-2.159,0.184-3.754,2.101-3.561,4.243c0.186,2.146,2.093,3.745,4.234,3.559l23.412-2.048
                c2.146-0.186,3.743-2.098,3.554-4.245c-0.175-2.033-1.888-3.573-3.891-3.573C360.856,59.946,360.74,59.95,360.628,59.963"/>

            <path d="M313.804,64.057l-33.545,2.933c-0.867,0.076-2.065,0.535-2.673,1.019c-0.6,0.484-1.806,0.944-2.662,1.015L103.245,84.048
                c-0.849,0.075-2.12-0.167-2.793-0.539c-0.679-0.378-1.949-0.616-2.806-0.541l-17.94,1.571c-2.154,0.178-3.747,2.091-3.561,4.237
                c0.182,2.154,2.104,3.751,4.25,3.563l17.937-1.575c0.856-0.067,2.065-0.53,2.67-1.011c0.601-0.492,1.798-0.947,2.658-1.027
                l171.683-15.011c0.854-0.08,2.116,0.163,2.798,0.54c0.679,0.369,1.934,0.61,2.803,0.539l33.543-2.937
                c2.151-0.186,3.748-2.099,3.562-4.241c-0.178-2.03-1.895-3.575-3.891-3.575C314.036,64.042,313.92,64.049,313.804,64.057"/>

            <path d="M307.559,81.606l-17.178,1.2h-0.008l-6.25,0.436c-0.86,0.06-2.073,0.503-2.678,0.972c-0.616,0.477-1.821,0.913-2.682,0.973
                l-0.786,0.058l-48.444,3.385c-0.863,0.063-2.119-0.202-2.793-0.587c-0.674-0.383-1.934-0.651-2.79-0.595l-60.944,4.274l-0.007-0.008
                l-6.246,0.436c-0.868,0.064-2.065,0.5-2.686,0.976c-0.608,0.473-1.821,0.913-2.681,0.969l-0.779,0.054l0,0l-46.103,3.226
                c-0.86,0.06-2.108-0.202-2.79-0.587c-0.683-0.388-1.926-0.651-2.783-0.591l-17.971,1.253c-2.154,0.155-3.79,2.028-3.639,4.183
                c0.147,2.15,2.035,3.785,4.181,3.63l17.971-1.253c0.86-0.057,2.069-0.5,2.678-0.977c0.616-0.473,1.821-0.913,2.685-0.972
                l46.897-3.278c0.856-0.054,2.104,0.211,2.778,0.592c0.67,0.384,1.929,0.646,2.786,0.591l2.341-0.167c0,0,0.003,0,0.003-0.005
                l64.857-4.53c0.869-0.064,2.07-0.496,2.682-0.969c0.612-0.477,1.821-0.92,2.682-0.977l49.222-3.439h0.013
                c0.864-0.06,2.104,0.202,2.777,0.591c0.675,0.379,1.922,0.643,2.783,0.583h0.015l23.438-1.632c2.151-0.159,3.786-2.036,3.635-4.183
                c-0.143-2.057-1.871-3.646-3.913-3.646C307.739,81.595,307.647,81.599,307.559,81.606"/>

            <path d="M340.067,96.875l-49.28,2.583c-0.86,0.044-2.068,0.461-2.7,0.925c-0.62,0.463-1.837,0.884-2.693,0.929l-0.783,0.038h-0.003
                l-46.15,2.426c-0.864,0.042-2.111-0.247-2.773-0.644c-0.671-0.397-1.923-0.678-2.787-0.635l-2.34,0.116h-0.004l-72.75,3.82
                c-0.856,0.039-2.073,0.459-2.693,0.921c-0.627,0.46-1.844,0.885-2.704,0.928l-0.775,0.044h-0.016l-46.142,2.416
                c-0.864,0.048-2.108-0.243-2.782-0.639c-0.659-0.397-1.915-0.682-2.767-0.638l-2.348,0.118l-15.65,0.818
                c-2.151,0.118-3.817,1.968-3.716,4.123c0.12,2.15,1.968,3.813,4.123,3.707l11.721-0.616h0.012l6.254-0.333
                c0.868-0.043,2.077-0.458,2.704-0.925c0.62-0.46,1.837-0.877,2.697-0.924l46.952-2.46c0.86-0.042,2.096,0.246,2.763,0.639
                c0.667,0.392,1.911,0.686,2.771,0.642l68.836-3.609h0.008l6.255-0.326c0.859-0.048,2.072-0.465,2.704-0.928
                c0.62-0.464,1.833-0.881,2.693-0.926l46.951-2.459c0.86-0.041,2.104,0.247,2.763,0.638c0.67,0.393,1.914,0.684,2.778,0.643
                l49.284-2.586c2.154-0.112,3.82-1.968,3.709-4.115c-0.102-2.087-1.85-3.714-3.915-3.714
                C340.203,96.872,340.138,96.872,340.067,96.875"/>

            <path d="M356.617,113.818l-7.822,0.275c-2.155,0.078-3.856,1.898-3.783,4.055c0.081,2.145,1.903,3.852,4.053,3.772l7.831-0.274
                c2.146-0.071,3.853-1.896,3.775-4.051c-0.081-2.108-1.826-3.782-3.922-3.782C356.707,113.814,356.664,113.814,356.617,113.818"/>

            <path d="M301.819,115.73l-10.18,0.358c-0.86,0.031-2.077,0.421-2.712,0.876c-0.628,0.453-1.849,0.853-2.713,0.882l-0.783,0.027
                l-0.003,0.003l-46.191,1.612c-0.861,0.022-2.093-0.283-2.756-0.688c-0.666-0.407-1.91-0.716-2.774-0.689l-2.341,0.08l-72.815,2.547
                c-0.86,0.027-2.073,0.42-2.709,0.872c-0.635,0.457-1.852,0.858-2.716,0.885l-0.779,0.026h-0.007l-46.176,1.614
                c-0.868,0.027-2.108-0.281-2.775-0.687c-0.658-0.408-1.906-0.719-2.767-0.69l-2.34,0.082h-0.004l-15.658,0.549
                c-2.154,0.076-3.855,1.896-3.782,4.047c0.078,2.154,1.898,3.854,4.057,3.781l11.729-0.408c0-0.004,0.008,0,0.008,0l6.262-0.223
                c0.86-0.027,2.081-0.425,2.716-0.878c0.635-0.455,1.856-0.848,2.716-0.88l46.987-1.638c0.86-0.024,2.092,0.277,2.751,0.685
                c0.655,0.414,1.902,0.723,2.763,0.696l68.883-2.409h0.008l6.262-0.222c0.864-0.027,2.084-0.425,2.717-0.878
                c0.631-0.452,1.848-0.849,2.707-0.88l46.995-1.64c0.856-0.027,2.088,0.282,2.743,0.687c0.659,0.409,1.91,0.722,2.771,0.689
                l10.171-0.353c2.154-0.079,3.856-1.908,3.778-4.056c-0.077-2.105-1.824-3.781-3.913-3.781
                C301.904,115.73,301.861,115.73,301.819,115.73"/>

            <path d="M325.831,132.154l-35.234,0.611h-0.011l-6.266,0.116c-0.86,0.015-2.077,0.38-2.724,0.825
                c-0.64,0.444-1.872,0.822-2.732,0.834l-0.786,0.011h-0.012l-46.188,0.81c-0.875,0.011-2.108-0.318-2.763-0.738
                c-0.654-0.417-1.891-0.75-2.755-0.731l-61.079,1.064h-0.008l-6.269,0.102c-0.86,0.021-2.081,0.398-2.732,0.837
                c-0.636,0.446-1.868,0.818-2.728,0.829l-0.783,0.012l0,0l-46.203,0.81c-0.86,0.016-2.104-0.318-2.759-0.734
                c-0.659-0.417-1.887-0.753-2.751-0.732L83.03,136.39c-2.146,0.038-3.883,1.83-3.844,3.984c0.039,2.152,1.829,3.881,3.983,3.849
                l18.011-0.313c0.867-0.016,2.092-0.392,2.731-0.833c0.639-0.439,1.864-0.817,2.724-0.83l47.017-0.821
                c0.856-0.011,2.085,0.314,2.728,0.735c0.651,0.42,1.903,0.753,2.759,0.734l2.341-0.035h0.007l65.012-1.139
                c0.86-0.013,2.085-0.39,2.729-0.834c0.639-0.437,1.863-0.813,2.728-0.829l47.013-0.817c0.861-0.016,2.081,0.313,2.729,0.728
                c0.659,0.426,1.902,0.752,2.759,0.744l2.341-0.044c0.003,0,0.003,0.003,0.003,0.003l39.168-0.685
                c2.149-0.041,3.886-1.835,3.848-3.985c-0.04-2.133-1.787-3.848-3.91-3.848C325.882,132.154,325.854,132.154,325.831,132.154"/>

            <path d="M284.494,149.399c-0.863,0-2.096,0.353-2.738,0.789c-0.644,0.423-1.888,0.781-2.74,0.781h-0.79h-0.004h-171.54
                c-0.86,0-2.097-0.358-2.736-0.781c-0.651-0.434-1.883-0.786-2.743-0.786h-2.34l-0.008-0.003h-15.67c-2.154,0-3.91,1.765-3.91,3.921
                c0,2.154,1.756,3.913,3.91,3.913h11.741l0.015,0.008h6.262c0.868,0,2.092-0.355,2.743-0.789c0.639-0.428,1.883-0.783,2.736-0.783
                h172.353c0.856,0.008,2.08,0.36,2.729,0.783c0.646,0.434,1.879,0.781,2.739,0.781h25.852c2.156,0,3.91-1.759,3.91-3.913
                c0-2.156-1.754-3.921-3.91-3.921H284.494z"/>

            <path d="M79.178,166.265c-0.035,2.154,1.697,3.949,3.86,3.987l18.01,0.311c0.864,0.012,2.1-0.311,2.751-0.736
                c0.651-0.419,1.898-0.751,2.751-0.732l156.652,2.731c0.872,0.016,2.085,0.388,2.717,0.829c0.639,0.446,1.871,0.813,2.728,0.83
                l2.344,0.046h0.013l23.489,0.411c2.154,0.038,3.952-1.689,3.991-3.844c0.035-2.158-1.69-3.952-3.855-3.992l-19.568-0.34h-0.009
                l-6.269-0.108c-0.86-0.016-2.104,0.318-2.751,0.736c-0.651,0.422-1.898,0.751-2.751,0.735l-0.787-0.019h-0.008l-155.842-2.717
                c-0.868-0.015-2.088-0.392-2.731-0.828c-0.639-0.446-1.872-0.815-2.731-0.83l-18.011-0.317c-0.027,0-0.05,0-0.073,0
                C80.973,162.418,79.217,164.131,79.178,166.265"/>

            <path d="M318.059,166.176c-2.151,0-3.905,1.76-3.905,3.918c0,2.154,1.754,3.91,3.905,3.91h15.67c2.154,0,3.913-1.756,3.913-3.91
                c0-2.158-1.759-3.918-3.913-3.918H318.059z"/>

            <path d="M78.845,179.201c-0.078,2.154,1.624,3.975,3.778,4.048l18.006,0.636c0.856,0.023,2.104-0.286,2.763-0.692
                c0.666-0.415,1.91-0.722,2.771-0.689l133.085,4.648c0.868,0.035,2.081,0.423,2.709,0.88c0.636,0.453,1.852,0.846,2.712,0.879
                l25.838,0.912c2.154,0.062,3.976-1.637,4.049-3.783c0.069-2.154-1.627-3.975-3.778-4.053l-25.825-0.899
                c-0.859-0.03-2.108,0.275-2.771,0.689c-0.658,0.408-1.902,0.718-2.771,0.687l-133.077-4.653c-0.86-0.023-2.077-0.415-2.716-0.876
                c-0.632-0.449-1.849-0.848-2.709-0.88l-18.006-0.624c-0.051,0-0.097,0-0.144,0C80.666,175.422,78.915,177.096,78.845,179.201"/>

            <path d="M282.375,186.307c-0.069,2.154,1.627,3.976,3.781,4.049l31.321,1.096c2.15,0.074,3.972-1.63,4.049-3.778
                c0.086-2.154-1.627-3.975-3.774-4.048l-31.316-1.09c-0.046-0.003-0.097-0.003-0.143-0.003
                C284.196,182.529,282.456,184.203,282.375,186.307"/>

            <path d="M78.218,192.115c-0.105,2.15,1.565,4.007,3.712,4.115l17.999,0.938c0.86,0.051,2.104-0.239,2.771-0.632
                c0.667-0.398,1.914-0.685,2.774-0.644l46.956,2.466c0.86,0.05,2.065,0.453,2.681,0.918c0.621,0.465,1.837,0.884,2.697,0.93
                l2.341,0.116h0.007l132.973,6.972c2.159,0.111,4.018-1.555,4.123-3.709c0.116-2.146-1.554-3.999-3.705-4.114l-129.059-6.767h-0.008
                l-6.262-0.325c-0.864-0.047-2.108,0.241-2.774,0.643c-0.667,0.399-1.918,0.682-2.779,0.636l-0.783-0.038h-0.004l-46.149-2.426
                c-0.86-0.038-2.069-0.458-2.697-0.915c-0.624-0.464-1.836-0.892-2.704-0.93l-17.987-0.945c-0.07,0-0.14,0-0.209,0
                C80.069,188.403,78.33,190.038,78.218,192.115"/>

            <path d="M77.318,205.002c-0.151,2.15,1.484,4.03,3.639,4.185l17.972,1.26c0.86,0.059,2.104-0.213,2.786-0.593
                c0.682-0.391,1.925-0.651,2.782-0.589l46.905,3.271c0.856,0.069,2.058,0.504,2.662,0.976c0.62,0.481,1.817,0.911,2.689,0.978
                l2.333,0.162h0.008l93.763,6.557c2.154,0.147,4.03-1.488,4.182-3.635c0.15-2.15-1.484-4.029-3.631-4.186l-89.858-6.28l-6.254-0.431
                c-0.86-0.069-2.115,0.194-2.786,0.585c-0.674,0.385-1.938,0.646-2.794,0.585l-0.783-0.054h-0.008l-46.095-3.224
                c-0.86-0.065-2.065-0.504-2.682-0.977c-0.604-0.473-1.817-0.911-2.674-0.977l-17.971-1.247c-0.089-0.008-0.186-0.008-0.271-0.008
                C79.194,201.361,77.461,202.95,77.318,205.002"/>

            <path d="M76.141,217.855c-0.186,2.146,1.411,4.058,3.557,4.244l17.944,1.572c0.856,0.078,2.127-0.17,2.806-0.542
                c0.674-0.38,1.941-0.621,2.793-0.543l46.839,4.093c0.86,0.084,2.046,0.534,2.647,1.021c0.608,0.481,1.806,0.938,2.662,1.016
                l2.333,0.206h0.008l132.663,11.609c2.146,0.188,4.049-1.414,4.243-3.563c0.186-2.146-1.414-4.048-3.558-4.238l-128.75-11.26h-0.012
                l-6.238-0.551c-0.853-0.073-2.115,0.171-2.798,0.535c-0.682,0.383-1.938,0.619-2.798,0.55l-0.778-0.07h-0.008l-46.038-4.029
                c-0.859-0.077-2.057-0.535-2.662-1.02c-0.601-0.488-1.802-0.94-2.666-1.021l-17.944-1.57c-0.116-0.008-0.236-0.016-0.349-0.016
                C78.039,214.287,76.315,215.83,76.141,217.855"/>

            <path d="M74.87,230.654c-0.221,2.139,1.341,4.08,3.487,4.301l17.917,1.883c0.864,0.094,2.124-0.13,2.817-0.487
                c0.687-0.364,1.941-0.585,2.802-0.496l46.754,4.914c0.86,0.093,2.039,0.577,2.635,1.064c0.597,0.492,1.783,0.978,2.643,1.066
                l2.324,0.244l0.008,0.004l85.695,9.013c2.144,0.224,4.077-1.341,4.302-3.479c0.229-2.146-1.34-4.085-3.479-4.309l-81.794-8.604
                v-0.003l-6.234-0.654c-0.86-0.086-2.115,0.135-2.806,0.495c-0.693,0.364-1.945,0.582-2.813,0.496l-0.767-0.086h-0.015l-45.956-4.827
                c-0.86-0.085-2.05-0.573-2.643-1.065c-0.597-0.5-1.787-0.98-2.643-1.074l-17.917-1.883c-0.14-0.016-0.271-0.023-0.407-0.023
                C76.795,227.14,75.079,228.643,74.87,230.654"/>

            <path d="M254.046,249.486c-0.229,2.143,1.338,4.072,3.479,4.301l23.374,2.453c2.139,0.229,4.08-1.337,4.301-3.483
                c0.231-2.143-1.337-4.076-3.484-4.305l-23.369-2.457c-0.135-0.012-0.274-0.02-0.406-0.02
                C255.964,245.979,254.251,247.479,254.046,249.486"/>

            <path d="M73.149,243.402c-0.263,2.139,1.271,4.107,3.402,4.371l17.886,2.197c0.856,0.097,2.123-0.097,2.813-0.446
                c0.701-0.348,1.96-0.545,2.821-0.441l46.668,5.728c0.852,0.107,2.022,0.608,2.612,1.108c0.577,0.507,1.759,1.003,2.619,1.107
                l2.325,0.287h0.008l93.291,11.462c2.143,0.256,4.107-1.279,4.363-3.41c0.268-2.14-1.268-4.1-3.402-4.37l-89.4-10.974l-6.223-0.775
                c-0.864-0.097-2.115,0.101-2.821,0.449c-0.689,0.349-1.96,0.551-2.813,0.442l-0.775-0.094l-0.015-0.008l-45.863-5.626
                c-0.852-0.101-2.034-0.601-2.627-1.107c-0.581-0.504-1.759-1.009-2.619-1.112l-17.882-2.197c-0.163-0.023-0.322-0.031-0.484-0.031
                C75.086,239.961,73.386,241.426,73.149,243.402"/>

            <path d="M71.142,256.092c-0.302,2.135,1.193,4.119,3.329,4.418l147.376,20.714c2.131,0.304,4.123-1.196,4.425-3.332
                c0.299-2.135-1.206-4.122-3.333-4.421L75.559,252.756c-0.186-0.027-0.368-0.047-0.546-0.047
                C73.103,252.717,71.413,254.144,71.142,256.092"/>

            <path d="M234.029,278.981c-0.303,2.139,1.201,4.131,3.332,4.425l7.758,1.09c2.135,0.302,4.122-1.206,4.425-3.333
                c0.298-2.136-1.209-4.123-3.332-4.422l-7.763-1.092c-0.178-0.023-0.367-0.039-0.545-0.039
                C235.99,275.61,234.304,277.032,234.029,278.981"/>
        </g>
    </g>
</svg>
